<?xml version="1.0" encoding="UTF-8"?>
<svg version="1.1" xmlns="http://www.w3.org/2000/svg" width="1024" height="1024">
<path d="M0 0 C1.4540625 0.0309375 1.4540625 0.0309375 2.9375 0.0625 C2.9375 0.3925 2.9375 0.7225 2.9375 1.0625 C4.00726074 1.12981323 4.00726074 1.12981323 5.09863281 1.19848633 C57.21076673 4.55691679 106.9560956 17.20799184 149.9375 48.0625 C150.9584375 48.78953125 151.979375 49.5165625 153.03125 50.265625 C174.33504833 65.85103536 193.79972591 84.39449683 208.9375 106.0625 C209.61280762 107.01866211 209.61280762 107.01866211 210.30175781 107.99414062 C228.38748866 133.76265809 240.77077776 161.72598785 248.9375 192.0625 C249.15180664 192.85527344 249.36611328 193.64804687 249.58691406 194.46484375 C265.29046607 254.09051329 254.3247553 320.0603973 223.5871582 373.05957031 C214.21179178 388.71535849 203.47422277 403.13978968 191.1640625 416.61328125 C189.72342241 418.19798535 188.3001593 419.79873839 186.8984375 421.41796875 C172.87119278 437.5204051 156.18288038 450.61138191 138.9375 463.0625 C139.41561958 467.73595054 140.41196578 470.17040427 143.5 473.6875 C148.1151646 479.20278535 152.08813988 484.99511952 155.9375 491.0625 C156.34339355 491.70155273 156.74928711 492.34060547 157.16748047 492.99902344 C188.24754531 542.24519317 220.02134328 609.53556253 207.45605469 669.35449219 C203.27780124 687.31555569 194.3971074 703.70612212 178.8984375 714.27734375 C169.53999545 719.91957069 159.98641258 724.2543214 148.9375 724.0625 C148.96070313 725.29097656 148.98390625 726.51945313 149.0078125 727.78515625 C149.55079183 770.2815159 148.65349164 826.56490604 117.9375 860.0625 C105.01343561 873.16932894 88.19296227 879.00461461 70.00708008 879.35498047 C50.81387527 879.48547071 32.70621288 876.57882295 18.2578125 862.734375 C6.50708475 849.20323396 3.53804589 832.58992473 1.375 815.375 C0.00510461 796.60809058 0.00510461 796.60809058 -9.0625 781.0625 C-13.23228119 779.16714491 -16.60503828 778.52387284 -20.9375 780.125 C-25.27732835 784.08190232 -26.55342329 788.2554371 -27.5625 793.9375 C-27.6850415 794.61876953 -27.80758301 795.30003906 -27.93383789 796.00195312 C-29.00073878 802.16233556 -29.74029485 808.35832633 -30.5 814.5625 C-32.63917451 831.80031603 -36.238602 847.99896663 -47.0625 862.0625 C-48.0525 862.3925 -49.0425 862.7225 -50.0625 863.0625 C-50.0625 863.7225 -50.0625 864.3825 -50.0625 865.0625 C-64.30842154 878.0939075 -82.95812079 878.80410904 -101.15478516 878.23730469 C-114.36275519 877.44327391 -129.57755039 871.43504771 -139.203125 862.1796875 C-169.9405365 827.18036601 -169.89369411 771.06961017 -169.0625 727.0625 C-169.80113281 726.96453125 -170.53976562 726.8665625 -171.30078125 726.765625 C-183.34282981 724.99068519 -192.43579757 721.55910875 -202.0625 714.0625 C-202.70058594 713.60101562 -203.33867187 713.13953125 -203.99609375 712.6640625 C-215.30977214 703.94572681 -220.94350757 688.75435669 -223.0625 675.0625 C-225.22003731 655.47530727 -224.16498415 635.05162486 -219.45288086 615.89086914 C-218.96156857 613.58978239 -218.91130619 611.40600399 -219.0625 609.0625 C-218.4025 609.0625 -217.7425 609.0625 -217.0625 609.0625 C-216.95808594 607.95777344 -216.85367188 606.85304688 -216.74609375 605.71484375 C-216.08808371 600.51348536 -214.66364961 595.62658287 -213.125 590.625 C-212.66637573 589.13250732 -212.66637573 589.13250732 -212.19848633 587.60986328 C-200.22068645 549.65400695 -181.15803149 513.69187564 -157.2109375 481.91796875 C-156.5627002 481.05558594 -155.91446289 480.19320313 -155.24658203 479.3046875 C-153.98651095 477.64028661 -152.71456344 475.98479003 -151.42919922 474.33984375 C-150.85959473 473.5921875 -150.28999023 472.84453125 -149.703125 472.07421875 C-149.19297852 471.41897217 -148.68283203 470.76372559 -148.15722656 470.08862305 C-146.76466952 467.5112745 -146.61775272 465.95059398 -147.0625 463.0625 C-148.42114484 461.43721961 -148.42114484 461.43721961 -150.39453125 460.265625 C-151.10512695 459.78673828 -151.81572266 459.30785156 -152.54785156 458.81445312 C-153.31581055 458.31880859 -154.08376953 457.82316406 -154.875 457.3125 C-156.45123745 456.24777409 -158.02545832 455.18005675 -159.59765625 454.109375 C-160.3673877 453.58923828 -161.13711914 453.06910156 -161.93017578 452.53320312 C-189.37415934 433.60458429 -211.30195781 406.58990844 -228.0625 378.0625 C-228.44116211 377.42183594 -228.81982422 376.78117187 -229.20996094 376.12109375 C-242.64995881 353.04113209 -257.53520409 319.30752574 -256.0625 292.0625 C-256.7225 291.7325 -257.3825 291.4025 -258.0625 291.0625 C-260.37487859 224.59079164 -250.19973328 161.58113643 -209.0625 107.0625 C-208.23042771 105.94143671 -207.39839662 104.82034284 -206.56640625 103.69921875 C-201.81903951 97.36291854 -196.78603849 91.37582469 -191.38671875 85.578125 C-188.70229517 82.67263124 -186.15423707 79.66834304 -183.6328125 76.62109375 C-181.9111466 74.91227611 -180.27551618 74.02530574 -178.0625 73.0625 C-178.0625 72.4025 -178.0625 71.7425 -178.0625 71.0625 C-175.64729999 68.48046052 -172.77876776 66.31780226 -170.0625 64.0625 C-169.49901855 63.588125 -168.93553711 63.11375 -168.35498047 62.625 C-158.9948621 54.75728821 -149.43999514 47.53298785 -139.0625 41.0625 C-138.4123291 40.65435059 -137.7621582 40.24620117 -137.09228516 39.82568359 C-115.56050222 26.4212727 -92.38475737 16.69563042 -68.0300293 9.67358398 C-66.01371544 9.10552209 -66.01371544 9.10552209 -64.0625 8.0625 C-62.23501936 7.73616417 -60.39995203 7.45198173 -58.5625 7.1875 C-54.76412961 6.6342591 -50.99078184 6.04894352 -47.21875 5.3359375 C-36.0501118 3.2300122 -24.88137689 2.36440118 -13.54882812 1.70898438 C-11.72834961 1.60166992 -11.72834961 1.60166992 -9.87109375 1.4921875 C-8.77595459 1.43272949 -7.68081543 1.37327148 -6.55249023 1.31201172 C-3.37105717 0.99321335 -3.4020112 0.0694288 0 0 Z M-148.0625 91.0625 C-148.99191406 91.88105469 -149.92132813 92.69960937 -150.87890625 93.54296875 C-155.41223474 97.57634745 -159.93587041 101.61008387 -164.0625 106.0625 C-164.0625 106.7225 -164.0625 107.3825 -164.0625 108.0625 C-164.7225 108.0625 -165.3825 108.0625 -166.0625 108.0625 C-168.82489283 111.03326297 -171.27962333 114.25810092 -173.78613281 117.44628906 C-175.00784449 118.99329199 -176.24958775 120.52441192 -177.4921875 122.0546875 C-188.23716607 135.54598647 -196.84073855 150.42395632 -204.0625 166.0625 C-204.3934668 166.76890625 -204.72443359 167.4753125 -205.06542969 168.203125 C-216.52141681 192.93490199 -223.27700197 220.77498136 -224.0625 248.0625 C-224.10246094 249.37089844 -224.14242187 250.67929687 -224.18359375 252.02734375 C-225.19003313 302.39480171 -210.01567732 354.84656147 -175.51074219 392.47900391 C-174.09542103 394.02650442 -172.70565342 395.59362703 -171.3203125 397.16796875 C-156.19331144 414.22042369 -138.67904791 427.54474354 -119.0625 439.0625 C-118.41120117 439.44647949 -117.75990234 439.83045898 -117.08886719 440.22607422 C-100.30989282 449.97017895 -82.18520163 456.26660554 -63.4375 461.0625 C-61.750802 461.49876709 -61.750802 461.49876709 -60.0300293 461.94384766 C-52.05573577 463.88067128 -44.25461391 464.70450971 -36.0625 465.0625 C-36.0625 465.3925 -36.0625 465.7225 -36.0625 466.0625 C-32.16740868 466.40488558 -28.27134096 466.73466688 -24.375 467.0625 C-22.74981445 467.20558594 -22.74981445 467.20558594 -21.09179688 467.3515625 C-8.5367965 468.39470793 3.70297651 468.07778676 16.25 467.0625 C18.09368164 466.91941406 18.09368164 466.91941406 19.97460938 466.7734375 C22.96261888 466.54090758 25.95019409 466.30387252 28.9375 466.0625 C28.9375 465.4025 28.9375 464.7425 28.9375 464.0625 C30.33162109 464.36994141 30.33162109 464.36994141 31.75390625 464.68359375 C36.9680207 465.41354366 41.78424761 464.2336968 46.875 463.125 C47.92333008 462.89973633 48.97166016 462.67447266 50.05175781 462.44238281 C85.11877489 454.562507 120.11698972 438.52032428 146.34765625 413.51171875 C148.45039287 411.52315787 150.58663743 409.63371133 152.78125 407.75 C156.88861841 404.17186964 160.66292098 400.35825441 164.375 396.375 C165.02750732 395.67511963 165.68001465 394.97523926 166.35229492 394.25415039 C171.67450171 388.47505648 176.46244193 382.53016278 180.9375 376.0625 C181.33243652 375.49740723 181.72737305 374.93231445 182.13427734 374.35009766 C191.65629311 360.67032062 199.7596856 346.55767382 205.9375 331.0625 C206.42476562 329.88880859 206.42476562 329.88880859 206.921875 328.69140625 C226.15527426 278.906492 226.74123993 221.35841278 205.64355469 172.03759766 C195.06047793 148.30126836 182.32303994 126.7659021 164.48046875 107.81640625 C162.63562385 105.81853274 160.93220794 103.83147736 159.23828125 101.71484375 C158.47902344 100.83957031 157.71976563 99.96429688 156.9375 99.0625 C156.2775 99.0625 155.6175 99.0625 154.9375 99.0625 C154.9375 98.4025 154.9375 97.7425 154.9375 97.0625 C154.2775 97.0625 153.6175 97.0625 152.9375 97.0625 C152.9375 96.4025 152.9375 95.7425 152.9375 95.0625 C149.97265622 92.30943077 146.74689504 89.87246933 143.5703125 87.36865234 C142.01395037 86.12365572 140.49029898 84.83809177 138.96875 83.55078125 C122.97085788 70.16091051 104.26175621 59.81699729 85.01220703 51.91455078 C83.20572552 51.17265616 81.41213216 50.39953094 79.62109375 49.62109375 C4.07882463 18.20260112 -87.80055354 37.6107078 -148.0625 91.0625 Z M-117.0625 488.0625 C-117.68125 488.59101562 -118.3 489.11953125 -118.9375 489.6640625 C-146.56793671 515.16126697 -164.90596575 555.30122556 -177.0625 590.0625 C-177.36623535 590.9174707 -177.6699707 591.77244141 -177.98291016 592.65332031 C-187.1461605 618.73617782 -196.53246872 653.36317482 -185.0625 680.0625 C-182.62981834 684.18300314 -179.45391886 687.12210562 -175.0625 689.0625 C-171.34629147 689.97073834 -168.04337555 690.19328341 -164.25 689.6875 C-159.61454397 686.24401837 -158.98006457 679.16659861 -158.140625 673.7265625 C-157.85970733 671.71421632 -157.58397046 669.70114239 -157.3125 667.6875 C-146.32155616 591.94699888 -146.32155616 591.94699888 -134.6484375 580.74609375 C-132.0625 579.0625 -132.0625 579.0625 -128.25 579.3125 C-126.6721875 579.68375 -126.6721875 579.68375 -125.0625 580.0625 C-120.27078461 590.94558187 -124.1394629 603.26305336 -126.25360107 614.46716309 C-127.20197291 619.50740157 -128.11284657 624.55438282 -129.0234375 629.6015625 C-129.29318893 631.09405518 -129.29318893 631.09405518 -129.56838989 632.61669922 C-131.01286049 640.66321235 -132.3147807 648.71451546 -133.4375 656.8125 C-133.58026367 657.81071777 -133.72302734 658.80893555 -133.87011719 659.83740234 C-136.53589601 679.81137948 -137.39370631 699.79445442 -137.32324219 719.92822266 C-137.31250623 723.560391 -137.3232257 727.19206502 -137.3359375 730.82421875 C-137.34839025 750.49275553 -136.69953142 770.28838689 -133.1875 789.6875 C-133.01532959 790.67202148 -132.84315918 791.65654297 -132.66577148 792.67089844 C-129.70171775 809.11000682 -126.11306101 827.52944609 -113.0625 839.0625 C-104.34780177 845.03256913 -94.28212795 844.98243778 -84.0625 844.0625 C-77.73185795 842.62265063 -73.23745699 840.12305392 -69.0625 835.0625 C-68.5667749 834.46816162 -68.0710498 833.87382324 -67.56030273 833.26147461 C-61.45392693 824.29649876 -60.87543509 811.52875247 -59.5 801 C-55.84267189 773.44732024 -55.84267189 773.44732024 -49.0625 763.0625 C-48.505625 762.175625 -47.94875 761.28875 -47.375 760.375 C-39.19196697 752.19196697 -28.87744361 748.96042326 -17.5625 748.6875 C-5.75632643 748.97227203 3.63128013 752.63621779 12.625 760.375 C13.388125 761.261875 14.15125 762.14875 14.9375 763.0625 C15.76701172 763.99835938 15.76701172 763.99835938 16.61328125 764.953125 C27.84795234 778.32887902 30.12165736 795.79692743 32.4375 812.5625 C33.97490301 823.40870327 36.23466898 832.67362582 44.9375 840.0625 C55.20000638 846.23073119 67.14806706 846.22213536 78.625 843.9375 C88.95693823 841.29272155 95.62269103 835.54037593 101.42578125 826.828125 C134.46409629 769.11778658 116.47815708 671.2460532 108.88891602 609.18945312 C108.56038334 606.48163457 108.24477457 603.77280984 107.9375 601.0625 C107.76676971 599.584328 107.76676971 599.584328 107.59259033 598.07629395 C107.49000916 597.10333374 107.38742798 596.13037354 107.28173828 595.12792969 C107.18692169 594.25352234 107.0921051 593.37911499 106.99441528 592.47821045 C106.90245166 588.57490944 107.89252359 586.37677212 109.9375 583.0625 C112.01855624 581.21267223 113.22354496 581.02138935 115.97265625 581.1796875 C117.969116 581.41207964 119.95490768 581.73206795 121.9375 582.0625 C126.24320467 592.52160938 128.72284203 603.08680927 130.375 614.25 C130.5830772 615.60694791 130.79125075 616.96388106 130.99951172 618.32080078 C132.24333889 626.57471032 133.29605422 634.84593689 134.26171875 643.13671875 C134.37114304 644.07478867 134.48056732 645.01285858 134.5933075 645.97935486 C135.12958301 650.60843611 135.65056821 655.23864142 136.15014648 659.87182617 C136.93718128 674.085039 136.93718128 674.085039 143.0625 686.1875 C148.65782278 687.89042433 153.7311958 687.89724631 159.125 685.5 C166.42069319 681.35175298 170.21951294 674.79941554 172.9375 667.0625 C174.72163533 660.25843342 175.29371576 653.63916158 175.25 646.625 C175.24508545 645.67052979 175.2401709 644.71605957 175.23510742 643.73266602 C175.08269583 634.30893977 173.84925921 625.27811196 171.9375 616.0625 C171.76589355 615.22895996 171.59428711 614.39541992 171.41748047 613.53662109 C164.68122539 581.63723266 152.36219068 549.10519116 133.9375 522.0625 C133.03644531 520.66064453 133.03644531 520.66064453 132.1171875 519.23046875 C119.75864847 499.25800642 119.75864847 499.25800642 101.9375 485.0625 C94.64028838 483.84827464 88.16191573 486.35245115 81.375 488.75 C69.03623753 492.87993519 56.76574019 495.90740577 43.9375 498.0625 C42.50108154 498.30806641 42.50108154 498.30806641 41.03564453 498.55859375 C9.87957323 503.6247918 -23.08197447 502.75867941 -54.0625 497.0625 C-55.6084082 496.78164551 -55.6084082 496.78164551 -57.18554688 496.49511719 C-89.19186724 490.49781638 -89.19186724 490.49781638 -102.0625 484.0625 C-108.28056235 483.30389639 -112.18068739 483.8926184 -117.0625 488.0625 Z " fill="#000000" transform="translate(507.0625,71.9375)"/>
<path d="M0 0 C13.00375185 11.19038462 19.35867861 25.40570573 20.89892578 42.27270508 C22.4834394 64.45353083 15.56861025 83.86657153 1.1875 100.875 C-8.98911552 110.60182036 -21.59888588 116.63577623 -35.7421875 116.9375 C-47.77100836 116.43760095 -56.85774837 111.89161043 -65.40625 103.52734375 C-76.67732777 91.10354212 -80.25225355 74.25484673 -79.8125 57.875 C-78.67141021 37.99601474 -71.39524065 19.69022799 -56.8125 5.875 C-40.95153841 -7.48159924 -17.90068696 -13.0102931 0 0 Z " fill="#000000" transform="translate(410.8125,252.125)"/>
<path d="M0 0 C13.74349484 11.40616579 19.37745926 28.11799098 21.609375 45.28125 C23.17789324 62.47049095 18.27270947 81.02462178 7.734375 94.78125 C-1.46797352 105.31086033 -11.85397298 113.19916864 -26.09765625 114.53515625 C-33.09545761 114.81947059 -38.88055437 113.53566103 -45.48046875 111.25390625 C-48.11640243 110.37290291 -50.65693149 109.7595205 -53.390625 109.28125 C-53.390625 108.62125 -53.390625 107.96125 -53.390625 107.28125 C-54.36 106.683125 -55.329375 106.085 -56.328125 105.46875 C-66.73708638 98.31787816 -72.34688756 85.02920985 -74.67626953 73.0793457 C-75.06158424 70.9956967 -75.42463275 68.90970285 -75.77734375 66.8203125 C-76.28069207 63.5244904 -76.28069207 63.5244904 -76.95507812 61.34301758 C-77.45759905 58.96421196 -77.29962551 57.16009024 -76.97265625 54.75390625 C-76.8550293 53.88564209 -76.73740234 53.01737793 -76.61621094 52.12280273 C-76.47989258 51.20571533 -76.34357422 50.28862793 -76.203125 49.34375 C-76.06293945 48.40023682 -75.92275391 47.45672363 -75.77832031 46.48461914 C-72.70875939 26.86999052 -64.88613267 11.10846189 -48.890625 -1.15625 C-44.24897782 -4.38069958 -39.87626379 -6.42010898 -34.390625 -7.71875 C-33.565625 -7.945625 -32.740625 -8.1725 -31.890625 -8.40625 C-20.02668243 -9.88924282 -9.69733127 -6.97193752 0 0 Z " fill="#000000" transform="translate(637.390625,274.71875)"/>
<path d="M0 0 C5.54211964 3.90702223 10.31566657 9.30297152 12.515625 15.7734375 C13.43567564 22.58181227 12.60922734 28.17483431 8.515625 33.7734375 C1.87151383 41.026044 -5.30739367 43.30339706 -14.9375 43.8359375 C-26.14963264 43.63836688 -34.99125012 40.65621518 -43.296875 33.2734375 C-48.484375 27.34486607 -48.484375 27.34486607 -48.484375 23.7734375 C-49.474375 24.1034375 -50.464375 24.4334375 -51.484375 24.7734375 C-51.484375 24.1134375 -51.484375 23.4534375 -51.484375 22.7734375 C-50.824375 22.7734375 -50.164375 22.7734375 -49.484375 22.7734375 C-49.8246875 21.1028125 -49.8246875 21.1028125 -50.171875 19.3984375 C-50.99649724 12.75433832 -48.70904269 7.05948385 -45.609375 1.2734375 C-43.18677351 -1.5766819 -42.05032736 -2.21879335 -38.484375 -3.2265625 C-37.74960937 -3.48308594 -37.01484375 -3.73960937 -36.2578125 -4.00390625 C-23.80765121 -8.18608117 -11.35188082 -6.64895876 0 0 Z " fill="#000000" transform="translate(500.484375,449.2265625)"/>
<path d="M0 0 C0.33 0 0.66 0 1 0 C1 1.65 1 3.3 1 5 C0.67 5 0.34 5 0 5 C0 3.35 0 1.7 0 0 Z " fill="#030404" transform="translate(336,803)"/>
<path d="M0 0 C4 1 4 1 4 1 Z " fill="#020203" transform="translate(517,575)"/>
<path d="M0 0 C4 1 4 1 4 1 Z " fill="#020303" transform="translate(509,575)"/>
<path d="M0 0 C0.99 0 1.98 0 3 0 C2.67 0.66 2.34 1.32 2 2 C1.34 1.34 0.68 0.68 0 0 Z " fill="#030302" transform="translate(475,574)"/>
<path d="M0 0 C4 1 4 1 4 1 Z " fill="#020202" transform="translate(603,390)"/>
<path d="M0 0 C4 1 4 1 4 1 Z " fill="#050606" transform="translate(513,72)"/>
<path d="" fill="#060708" transform="translate(0,0)"/>
<path d="" fill="#090809" transform="translate(0,0)"/>
<path d="" fill="#050404" transform="translate(0,0)"/>
<path d="" fill="#050303" transform="translate(0,0)"/>
<path d="M0 0 C3 1 3 1 3 1 Z " fill="#030202" transform="translate(531,110)"/>
<path d="M0 0 C2 1 2 1 2 1 Z " fill="#090909" transform="translate(552,950)"/>
<path d="" fill="#0A0B08" transform="translate(0,0)"/>
<path d="" fill="#070405" transform="translate(0,0)"/>
<path d="" fill="#060605" transform="translate(0,0)"/>
<path d="" fill="#060505" transform="translate(0,0)"/>
<path d="" fill="#060806" transform="translate(0,0)"/>
<path d="" fill="#040504" transform="translate(0,0)"/>
<path d="" fill="#040403" transform="translate(0,0)"/>
<path d="" fill="#040504" transform="translate(0,0)"/>
<path d="M0 0 C2 1 2 1 2 1 Z " fill="#030304" transform="translate(531,574)"/>
<path d="M0 0 C2 1 2 1 2 1 Z " fill="#050303" transform="translate(537,573)"/>
<path d="M0 0 C2 1 2 1 2 1 Z " fill="#040302" transform="translate(462,572)"/>
<path d="M0 0 C2 1 2 1 2 1 Z " fill="#050303" transform="translate(573,567)"/>
<path d="M0 0 C2 1 2 1 2 1 Z " fill="#040405" transform="translate(531,536)"/>
<path d="M0 0 C2 1 2 1 2 1 Z " fill="#050305" transform="translate(593,520)"/>
<path d="" fill="#090906" transform="translate(0,0)"/>
<path d="" fill="#080908" transform="translate(0,0)"/>
<path d="" fill="#060805" transform="translate(0,0)"/>
<path d="" fill="#090B09" transform="translate(0,0)"/>
<path d="M0 0 C2 1 2 1 2 1 Z " fill="#010102" transform="translate(561,352)"/>
<path d="" fill="#030303" transform="translate(0,0)"/>
<path d="" fill="#030301" transform="translate(0,0)"/>
<path d="" fill="#050503" transform="translate(0,0)"/>
<path d="" fill="#030303" transform="translate(0,0)"/>
<path d="M0 0 C2 1 2 1 2 1 Z " fill="#030203" transform="translate(528,110)"/>
<path d="M0 0 C2 1 2 1 2 1 Z " fill="#040303" transform="translate(520,109)"/>
<path d="M0 0 C2 1 2 1 2 1 Z " fill="#060606" transform="translate(571,80)"/>
<path d="M0 0 C2 1 2 1 2 1 Z " fill="#040504" transform="translate(497,72)"/>
<path d="M0 0 C2 1 2 1 2 1 Z " fill="#060605" transform="translate(493,72)"/>
<path d="" fill="#0A0908" transform="translate(0,0)"/>
<path d="" fill="#0A090A" transform="translate(0,0)"/>
<path d="" fill="#0A0A08" transform="translate(0,0)"/>
<path d="" fill="#0B0906" transform="translate(0,0)"/>
<path d="" fill="#0B0B0C" transform="translate(0,0)"/>
<path d="" fill="#080909" transform="translate(0,0)"/>
<path d="" fill="#070704" transform="translate(0,0)"/>
<path d="" fill="#080505" transform="translate(0,0)"/>
<path d="" fill="#070808" transform="translate(0,0)"/>
<path d="" fill="#080807" transform="translate(0,0)"/>
<path d="" fill="#040606" transform="translate(0,0)"/>
<path d="" fill="#060405" transform="translate(0,0)"/>
<path d="" fill="#0B0A0A" transform="translate(0,0)"/>
<path d="" fill="#0B0B0D" transform="translate(0,0)"/>
<path d="" fill="#050506" transform="translate(0,0)"/>
<path d="" fill="#0B0A09" transform="translate(0,0)"/>
<path d="" fill="#060605" transform="translate(0,0)"/>
<path d="" fill="#080A08" transform="translate(0,0)"/>
<path d="" fill="#0A0707" transform="translate(0,0)"/>
<path d="" fill="#060707" transform="translate(0,0)"/>
<path d="" fill="#060405" transform="translate(0,0)"/>
<path d="" fill="#050504" transform="translate(0,0)"/>
<path d="" fill="#050405" transform="translate(0,0)"/>
<path d="" fill="#040405" transform="translate(0,0)"/>
<path d="" fill="#080A08" transform="translate(0,0)"/>
<path d="" fill="#060505" transform="translate(0,0)"/>
<path d="" fill="#040505" transform="translate(0,0)"/>
<path d="" fill="#050606" transform="translate(0,0)"/>
<path d="" fill="#090907" transform="translate(0,0)"/>
<path d="" fill="#070505" transform="translate(0,0)"/>
<path d="" fill="#050605" transform="translate(0,0)"/>
<path d="" fill="#070506" transform="translate(0,0)"/>
<path d="" fill="#090A05" transform="translate(0,0)"/>
<path d="" fill="#050404" transform="translate(0,0)"/>
<path d="" fill="#070505" transform="translate(0,0)"/>
<path d="" fill="#060607" transform="translate(0,0)"/>
<path d="" fill="#050303" transform="translate(0,0)"/>
<path d="" fill="#060606" transform="translate(0,0)"/>
<path d="" fill="#040403" transform="translate(0,0)"/>
<path d="" fill="#030303" transform="translate(0,0)"/>
<path d="" fill="#060705" transform="translate(0,0)"/>
<path d="" fill="#050309" transform="translate(0,0)"/>
<path d="" fill="#040504" transform="translate(0,0)"/>
<path d="" fill="#050404" transform="translate(0,0)"/>
<path d="" fill="#060606" transform="translate(0,0)"/>
<path d="" fill="#050605" transform="translate(0,0)"/>
<path d="" fill="#070706" transform="translate(0,0)"/>
<path d="" fill="#060604" transform="translate(0,0)"/>
<path d="" fill="#070808" transform="translate(0,0)"/>
<path d="" fill="#050303" transform="translate(0,0)"/>
<path d="" fill="#0A0A08" transform="translate(0,0)"/>
<path d="" fill="#070607" transform="translate(0,0)"/>
<path d="" fill="#090907" transform="translate(0,0)"/>
<path d="" fill="#090A0B" transform="translate(0,0)"/>
<path d="" fill="#050305" transform="translate(0,0)"/>
<path d="" fill="#040304" transform="translate(0,0)"/>
<path d="" fill="#060404" transform="translate(0,0)"/>
<path d="" fill="#0A0C09" transform="translate(0,0)"/>
<path d="" fill="#020404" transform="translate(0,0)"/>
<path d="" fill="#0A0B0C" transform="translate(0,0)"/>
<path d="" fill="#050304" transform="translate(0,0)"/>
<path d="" fill="#0A0A0A" transform="translate(0,0)"/>
<path d="" fill="#050506" transform="translate(0,0)"/>
<path d="" fill="#050506" transform="translate(0,0)"/>
<path d="" fill="#040604" transform="translate(0,0)"/>
<path d="" fill="#050505" transform="translate(0,0)"/>
<path d="" fill="#040305" transform="translate(0,0)"/>
<path d="" fill="#040604" transform="translate(0,0)"/>
<path d="" fill="#050504" transform="translate(0,0)"/>
<path d="" fill="#040403" transform="translate(0,0)"/>
<path d="" fill="#020404" transform="translate(0,0)"/>
<path d="" fill="#030405" transform="translate(0,0)"/>
<path d="" fill="#050404" transform="translate(0,0)"/>
<path d="" fill="#040403" transform="translate(0,0)"/>
<path d="" fill="#030504" transform="translate(0,0)"/>
<path d="" fill="#050606" transform="translate(0,0)"/>
<path d="" fill="#040405" transform="translate(0,0)"/>
<path d="" fill="#040403" transform="translate(0,0)"/>
<path d="" fill="#060706" transform="translate(0,0)"/>
<path d="" fill="#070405" transform="translate(0,0)"/>
<path d="" fill="#020504" transform="translate(0,0)"/>
<path d="" fill="#040504" transform="translate(0,0)"/>
<path d="" fill="#040403" transform="translate(0,0)"/>
<path d="" fill="#090A0B" transform="translate(0,0)"/>
<path d="" fill="#050404" transform="translate(0,0)"/>
<path d="" fill="#040505" transform="translate(0,0)"/>
<path d="" fill="#010202" transform="translate(0,0)"/>
<path d="" fill="#040405" transform="translate(0,0)"/>
<path d="" fill="#090706" transform="translate(0,0)"/>
<path d="" fill="#050503" transform="translate(0,0)"/>
<path d="" fill="#040405" transform="translate(0,0)"/>
<path d="" fill="#020404" transform="translate(0,0)"/>
<path d="" fill="#060505" transform="translate(0,0)"/>
<path d="" fill="#060603" transform="translate(0,0)"/>
<path d="" fill="#060505" transform="translate(0,0)"/>
<path d="" fill="#070906" transform="translate(0,0)"/>
<path d="" fill="#030602" transform="translate(0,0)"/>
<path d="" fill="#060406" transform="translate(0,0)"/>
<path d="" fill="#040504" transform="translate(0,0)"/>
<path d="" fill="#040102" transform="translate(0,0)"/>
<path d="" fill="#050506" transform="translate(0,0)"/>
<path d="" fill="#050202" transform="translate(0,0)"/>
<path d="" fill="#030105" transform="translate(0,0)"/>
<path d="" fill="#070705" transform="translate(0,0)"/>
<path d="" fill="#040303" transform="translate(0,0)"/>
<path d="" fill="#040305" transform="translate(0,0)"/>
<path d="" fill="#030402" transform="translate(0,0)"/>
<path d="" fill="#050302" transform="translate(0,0)"/>
<path d="" fill="#040201" transform="translate(0,0)"/>
<path d="" fill="#040302" transform="translate(0,0)"/>
<path d="" fill="#040203" transform="translate(0,0)"/>
<path d="" fill="#030504" transform="translate(0,0)"/>
<path d="" fill="#050303" transform="translate(0,0)"/>
<path d="" fill="#050403" transform="translate(0,0)"/>
<path d="" fill="#050503" transform="translate(0,0)"/>
<path d="" fill="#030203" transform="translate(0,0)"/>
<path d="" fill="#050305" transform="translate(0,0)"/>
<path d="" fill="#050705" transform="translate(0,0)"/>
<path d="" fill="#040504" transform="translate(0,0)"/>
<path d="" fill="#050403" transform="translate(0,0)"/>
<path d="" fill="#050403" transform="translate(0,0)"/>
<path d="" fill="#040303" transform="translate(0,0)"/>
<path d="" fill="#040503" transform="translate(0,0)"/>
<path d="" fill="#030404" transform="translate(0,0)"/>
<path d="" fill="#030404" transform="translate(0,0)"/>
<path d="" fill="#040403" transform="translate(0,0)"/>
<path d="" fill="#050503" transform="translate(0,0)"/>
<path d="" fill="#030405" transform="translate(0,0)"/>
<path d="" fill="#060508" transform="translate(0,0)"/>
<path d="" fill="#050406" transform="translate(0,0)"/>
<path d="" fill="#030302" transform="translate(0,0)"/>
<path d="" fill="#050403" transform="translate(0,0)"/>
<path d="" fill="#070506" transform="translate(0,0)"/>
<path d="" fill="#050506" transform="translate(0,0)"/>
<path d="" fill="#070805" transform="translate(0,0)"/>
<path d="" fill="#070608" transform="translate(0,0)"/>
<path d="" fill="#080606" transform="translate(0,0)"/>
<path d="" fill="#070506" transform="translate(0,0)"/>
<path d="" fill="#050605" transform="translate(0,0)"/>
<path d="" fill="#050603" transform="translate(0,0)"/>
<path d="" fill="#060704" transform="translate(0,0)"/>
<path d="" fill="#040304" transform="translate(0,0)"/>
<path d="" fill="#040604" transform="translate(0,0)"/>
<path d="" fill="#050103" transform="translate(0,0)"/>
<path d="" fill="#030302" transform="translate(0,0)"/>
<path d="" fill="#090A09" transform="translate(0,0)"/>
<path d="" fill="#080607" transform="translate(0,0)"/>
<path d="" fill="#070907" transform="translate(0,0)"/>
<path d="" fill="#080707" transform="translate(0,0)"/>
<path d="" fill="#080707" transform="translate(0,0)"/>
<path d="" fill="#030303" transform="translate(0,0)"/>
<path d="" fill="#050302" transform="translate(0,0)"/>
<path d="" fill="#020504" transform="translate(0,0)"/>
<path d="" fill="#070909" transform="translate(0,0)"/>
<path d="" fill="#050601" transform="translate(0,0)"/>
<path d="" fill="#050402" transform="translate(0,0)"/>
<path d="" fill="#050403" transform="translate(0,0)"/>
<path d="" fill="#090A0A" transform="translate(0,0)"/>
<path d="" fill="#080A09" transform="translate(0,0)"/>
<path d="" fill="#0A0A08" transform="translate(0,0)"/>
<path d="" fill="#010202" transform="translate(0,0)"/>
<path d="" fill="#030303" transform="translate(0,0)"/>
<path d="" fill="#040405" transform="translate(0,0)"/>
<path d="" fill="#030102" transform="translate(0,0)"/>
<path d="" fill="#020201" transform="translate(0,0)"/>
<path d="" fill="#070809" transform="translate(0,0)"/>
<path d="" fill="#020303" transform="translate(0,0)"/>
<path d="" fill="#030505" transform="translate(0,0)"/>
<path d="" fill="#030500" transform="translate(0,0)"/>
<path d="" fill="#010502" transform="translate(0,0)"/>
<path d="" fill="#090808" transform="translate(0,0)"/>
<path d="" fill="#080808" transform="translate(0,0)"/>
<path d="" fill="#020202" transform="translate(0,0)"/>
<path d="" fill="#030401" transform="translate(0,0)"/>
<path d="" fill="#020104" transform="translate(0,0)"/>
<path d="" fill="#020202" transform="translate(0,0)"/>
<path d="" fill="#000301" transform="translate(0,0)"/>
<path d="" fill="#020302" transform="translate(0,0)"/>
<path d="" fill="#030403" transform="translate(0,0)"/>
<path d="" fill="#020304" transform="translate(0,0)"/>
<path d="" fill="#000201" transform="translate(0,0)"/>
<path d="" fill="#070808" transform="translate(0,0)"/>
<path d="" fill="#020603" transform="translate(0,0)"/>
<path d="" fill="#030102" transform="translate(0,0)"/>
<path d="" fill="#090A09" transform="translate(0,0)"/>
<path d="" fill="#030303" transform="translate(0,0)"/>
<path d="" fill="#050202" transform="translate(0,0)"/>
<path d="" fill="#010201" transform="translate(0,0)"/>
<path d="" fill="#010102" transform="translate(0,0)"/>
<path d="" fill="#000001" transform="translate(0,0)"/>
<path d="" fill="#010101" transform="translate(0,0)"/>
<path d="" fill="#030302" transform="translate(0,0)"/>
<path d="" fill="#030003" transform="translate(0,0)"/>
<path d="" fill="#030203" transform="translate(0,0)"/>
<path d="" fill="#040504" transform="translate(0,0)"/>
<path d="" fill="#0B0B0B" transform="translate(0,0)"/>
<path d="" fill="#070403" transform="translate(0,0)"/>
<path d="" fill="#050402" transform="translate(0,0)"/>
<path d="" fill="#0B090C" transform="translate(0,0)"/>
<path d="" fill="#040304" transform="translate(0,0)"/>
<path d="" fill="#0A0909" transform="translate(0,0)"/>
<path d="" fill="#010000" transform="translate(0,0)"/>
<path d="" fill="#0E0D0C" transform="translate(0,0)"/>
<path d="" fill="#0C0B08" transform="translate(0,0)"/>
<path d="" fill="#080908" transform="translate(0,0)"/>
<path d="" fill="#070707" transform="translate(0,0)"/>
<path d="" fill="#080708" transform="translate(0,0)"/>
<path d="" fill="#09090A" transform="translate(0,0)"/>
<path d="" fill="#030402" transform="translate(0,0)"/>
<path d="" fill="#090706" transform="translate(0,0)"/>
<path d="" fill="#050503" transform="translate(0,0)"/>
<path d="" fill="#040605" transform="translate(0,0)"/>
<path d="" fill="#030201" transform="translate(0,0)"/>
<path d="" fill="#060405" transform="translate(0,0)"/>
<path d="" fill="#050403" transform="translate(0,0)"/>
<path d="" fill="#080906" transform="translate(0,0)"/>
<path d="" fill="#050204" transform="translate(0,0)"/>
<path d="" fill="#040404" transform="translate(0,0)"/>
<path d="" fill="#040203" transform="translate(0,0)"/>
<path d="" fill="#060807" transform="translate(0,0)"/>
<path d="" fill="#080807" transform="translate(0,0)"/>
<path d="" fill="#030202" transform="translate(0,0)"/>
<path d="" fill="#030503" transform="translate(0,0)"/>
<path d="" fill="#020502" transform="translate(0,0)"/>
<path d="" fill="#060403" transform="translate(0,0)"/>
<path d="" fill="#060606" transform="translate(0,0)"/>
<path d="" fill="#070906" transform="translate(0,0)"/>
<path d="" fill="#060607" transform="translate(0,0)"/>
<path d="" fill="#090A06" transform="translate(0,0)"/>
<path d="" fill="#070606" transform="translate(0,0)"/>
<path d="" fill="#09070A" transform="translate(0,0)"/>
<path d="" fill="#060806" transform="translate(0,0)"/>
<path d="" fill="#080806" transform="translate(0,0)"/>
<path d="" fill="#070906" transform="translate(0,0)"/>
<path d="" fill="#070808" transform="translate(0,0)"/>
<path d="" fill="#060706" transform="translate(0,0)"/>
<path d="" fill="#030505" transform="translate(0,0)"/>
<path d="" fill="#070407" transform="translate(0,0)"/>
<path d="" fill="#060505" transform="translate(0,0)"/>
<path d="" fill="#080805" transform="translate(0,0)"/>
</svg>
